<svg width="358" height="640" viewBox="0 0 358 640" fill="none" xmlns="http://www.w3.org/2000/svg">
    <rect width="358" height="640" fill="#E5E5E5"/>
    <g clip-path="url(#clip0)">
        <rect width="358" height="640" fill="#F2F2F2"/>
        <ellipse cx="92.5" cy="31.5" rx="47.5" ry="40.5" fill="#2D9CDB"/>
        <ellipse cx="150.5" cy="27.5" rx="45.5" ry="38.5" fill="#2D9CDB"/>
        <ellipse cx="274" cy="18.5" rx="42" ry="39.5" fill="#2D9CDB"/>
        <ellipse cx="211" cy="32.5" rx="47" ry="41.5" fill="#2D9CDB"/>
        <ellipse cx="29.5" cy="27" rx="43.5" ry="42" fill="#2D9CDB"/>
        <ellipse cx="329.5" cy="28.5" rx="44.5" ry="39.5" fill="#2D9CDB"/>
        <ellipse cx="152" cy="611" rx="47" ry="48" fill="#2D9CDB"/>
        <ellipse cx="9" cy="610.5" rx="49" ry="49.5" fill="#2D9CDB"/>
        <ellipse cx="282" cy="609.5" rx="51" ry="46.5" fill="#2D9CDB"/>
        <ellipse cx="215.5" cy="611" rx="47.5" ry="48" fill="#2D9CDB"/>
        <ellipse cx="345" cy="617" rx="47" ry="51" fill="#2D9CDB"/>
        <ellipse cx="77.5" cy="611.5" rx="48.5" ry="45.5" fill="#2D9CDB"/>
        <circle cx="237.5" cy="351.5" r="6.5" fill="#2D9CDB"/>
        <circle cx="216.5" cy="350.5" r="8.5" fill="#2D9CDB"/>
        <path d="M312.744 317.415L272.062 348.334L268.956 295.51L362.751 86.4624L406.539 108.367L312.744 317.415Z" fill="#2D9CDB"/>
        <g style="mix-blend-mode:darken">
            <path d="M27.5382 322.975L31.5707 347.682L44.4597 323.087L53.6001 323.147L47.4456 357.232L40.5551 357.187L42.3067 347.472L45.7349 332.306L32.4928 357.134L27.7819 357.103L23.3817 331.292L21.0678 348.082L19.4384 357.048L12.5713 357.002L18.7259 322.917L27.5382 322.975ZM63.9854 347.685L71.331 332.03L78.6902 332.078L63.6622 361.16C62.585 363.387 61.3242 365.019 59.8798 366.057C58.4511 367.094 56.7992 367.607 54.9243 367.594C54.1899 367.589 53.1285 367.418 51.7401 367.081L52.2663 361.928L53.18 361.981C55.3358 362.058 56.9191 361.279 57.9299 359.645L59.4007 356.96L55.4173 331.925L62.2609 331.97L63.9854 347.685ZM104.187 357.606L97.5304 357.563L88.1885 334.743L84.0776 357.474L77.2105 357.429L83.3651 323.343L89.9978 323.387L99.3628 346.254L103.474 323.476L110.318 323.521L104.187 357.606ZM124.606 331.912C126.841 331.958 128.759 332.549 130.36 333.685C131.978 334.805 133.155 336.352 133.892 338.325C134.645 340.283 134.904 342.457 134.67 344.846C134.284 348.875 132.856 352.131 130.386 354.615C127.933 357.083 124.909 358.274 121.316 358.188C119.113 358.142 117.21 357.567 115.608 356.463C114.006 355.343 112.829 353.804 112.076 351.846C111.324 349.888 111.064 347.73 111.299 345.372C111.732 341.187 113.176 337.868 115.63 335.416C118.084 332.963 121.076 331.795 124.606 331.912ZM117.822 347.829C117.843 349.329 118.187 350.519 118.853 351.398C119.519 352.262 120.461 352.714 121.68 352.753C123.711 352.829 125.31 351.91 126.479 349.995C127.648 348.066 128.204 345.53 128.147 342.389C128.094 340.889 127.735 339.691 127.069 338.796C126.419 337.885 125.476 337.41 124.242 337.371C122.274 337.296 120.69 338.215 119.49 340.129C118.305 342.027 117.749 344.594 117.822 347.829ZM150.12 326.315L148.978 332.542L153.196 332.57L152.296 337.533L148.078 337.505L145.838 350.193C145.739 350.99 145.797 351.599 146.013 352.023C146.229 352.446 146.759 352.676 147.603 352.713C147.852 352.73 148.525 352.696 149.619 352.609L149.116 357.786C147.942 358.168 146.675 358.34 145.316 358.3C143.144 358.254 141.531 357.564 140.478 356.229C139.424 354.893 138.998 353.094 139.201 350.829L141.469 337.461L137.883 337.438L138.783 332.475L142.369 332.498L143.488 326.271L150.12 326.315ZM164.534 358.473C162.315 358.443 160.35 357.891 158.638 356.817C156.942 355.728 155.679 354.251 154.847 352.386C154.016 350.505 153.701 348.441 153.903 346.192L153.98 345.255C154.231 342.788 154.964 340.527 156.181 338.472C157.398 336.418 158.955 334.842 160.853 333.745C162.751 332.633 164.848 332.115 167.145 332.193C170.41 332.277 172.87 333.496 174.527 335.851C176.199 338.19 176.82 341.148 176.39 344.723L175.996 347.603L160.457 347.501C160.384 349.141 160.774 350.456 161.627 351.446C162.48 352.436 163.648 352.952 165.132 352.993C167.538 353.071 169.654 352.155 171.479 350.245L174.477 354.015C173.515 355.446 172.132 356.562 170.33 357.363C168.528 358.148 166.596 358.518 164.534 358.473ZM166.78 337.652C165.562 337.612 164.473 337.988 163.515 338.779C162.572 339.569 161.719 340.946 160.957 342.91L170.05 342.97L170.195 342.362C170.293 341.737 170.304 341.144 170.23 340.581C170.08 339.673 169.701 338.968 169.095 338.464C168.489 337.944 167.718 337.673 166.78 337.652ZM192.638 351.041C192.896 349.793 192.035 348.881 190.054 348.305L187.925 347.752C182.888 346.328 180.451 343.859 180.615 340.344C180.708 337.954 181.776 336.016 183.817 334.53C185.874 333.027 188.34 332.301 191.214 332.352C194.073 332.402 196.381 333.175 198.137 334.671C199.892 336.167 200.778 338.149 200.793 340.618L194.231 340.551C194.276 338.38 193.205 337.271 191.018 337.225C189.987 337.219 189.087 337.471 188.318 337.981C187.564 338.492 187.099 339.184 186.921 340.058C186.679 341.306 187.618 342.195 189.74 342.725L190.676 342.942C192.829 343.472 194.473 344.077 195.609 344.756C196.745 345.42 197.615 346.246 198.218 347.234C198.836 348.223 199.118 349.404 199.062 350.779C199.004 352.388 198.472 353.791 197.464 354.987C196.471 356.184 195.106 357.104 193.367 357.749C191.644 358.394 189.83 358.687 187.924 358.627C185.112 358.578 182.773 357.758 180.909 356.167C179.044 354.561 178.105 352.5 178.09 349.984L184.324 350.072C184.37 352.494 185.659 353.73 188.19 353.778C189.409 353.786 190.41 353.542 191.195 353.047C191.995 352.553 192.476 351.884 192.638 351.041Z" fill="#2D9CDB"/>
        </g>
        <circle cx="258" cy="352" r="5" fill="#2D9CDB"/>
        <path d="M43.0679 177.243L42.4087 181H40.2627L42.1157 170.336L45.8511 170.343C47.0034 170.343 47.9092 170.663 48.5684 171.303C49.2275 171.942 49.5156 172.777 49.4326 173.808C49.3545 174.853 48.9175 175.688 48.1216 176.312C47.3306 176.938 46.3198 177.25 45.0894 177.25L43.0679 177.243ZM43.3682 175.463L45.1553 175.478C45.7314 175.478 46.21 175.329 46.5908 175.031C46.9717 174.733 47.1987 174.33 47.272 173.822C47.3452 173.314 47.2622 172.909 47.0229 172.606C46.7886 172.304 46.4395 172.143 45.9756 172.123L43.9541 172.116L43.3682 175.463ZM52.7432 173.954C53.3633 173.261 54.0786 172.919 54.8892 172.929C55.6753 172.948 56.2515 173.231 56.6177 173.778C56.9888 174.32 57.1279 175.062 57.0352 176.005L56.2002 181H54.1348L54.9771 175.983C55.0015 175.792 55.0063 175.617 54.9917 175.456C54.9429 174.928 54.6353 174.657 54.0688 174.643C53.5122 174.623 53.0239 174.862 52.604 175.36L51.6079 181H49.5425L51.4907 169.75H53.5635L52.7432 173.954ZM61.1733 177.982L63.4365 173.075H65.7363L61.1001 182.194C60.7681 182.892 60.3774 183.405 59.9282 183.732C59.4839 184.059 58.9688 184.223 58.3828 184.223C58.1533 184.223 57.8213 184.171 57.3867 184.069L57.5405 182.458L57.8262 182.472C58.5 182.492 58.9932 182.245 59.3057 181.732L59.7598 180.89L58.4634 173.075H60.6021L61.1733 177.982ZM69.7866 178.766C69.8647 178.375 69.5938 178.092 68.9736 177.917L68.3071 177.748C66.73 177.313 65.9634 176.547 66.0073 175.448C66.0317 174.701 66.3613 174.093 66.9961 173.625C67.6357 173.151 68.4048 172.919 69.3032 172.929C70.1968 172.938 70.9194 173.175 71.4712 173.639C72.0229 174.103 72.3037 174.721 72.3135 175.492L70.2627 175.485C70.2725 174.806 69.9355 174.462 69.252 174.452C68.9297 174.452 68.6489 174.533 68.4097 174.694C68.1753 174.855 68.0312 175.072 67.9775 175.346C67.9043 175.736 68.1997 176.012 68.8638 176.173L69.1567 176.239C69.8306 176.4 70.3457 176.586 70.7021 176.796C71.0586 177.001 71.332 177.257 71.5225 177.565C71.7178 177.873 71.8081 178.241 71.7935 178.671C71.7788 179.174 71.6152 179.613 71.3027 179.989C70.9951 180.365 70.5703 180.656 70.0283 180.861C69.4912 181.066 68.9248 181.161 68.3291 181.146C67.4502 181.137 66.7178 180.885 66.1318 180.392C65.5459 179.894 65.248 179.252 65.2383 178.466L67.1865 178.48C67.2061 179.237 67.6113 179.621 68.4023 179.63C68.7832 179.63 69.0957 179.552 69.3398 179.396C69.5889 179.24 69.7378 179.03 69.7866 178.766ZM74.9355 181H72.8555L74.2324 173.075H76.3125L74.9355 181ZM74.4741 171.061C74.4644 170.734 74.5718 170.463 74.7964 170.248C75.021 170.033 75.292 169.926 75.6094 169.926C75.9219 169.916 76.1929 170.011 76.4224 170.211C76.6519 170.412 76.7715 170.67 76.7812 170.988C76.791 171.291 76.6885 171.554 76.4736 171.779C76.2637 172.003 75.9878 172.121 75.646 172.13C75.3384 172.14 75.0674 172.047 74.833 171.852C74.6035 171.657 74.4839 171.393 74.4741 171.061ZM80.165 179.447C80.5459 179.457 80.8633 179.354 81.1172 179.14C81.3711 178.92 81.5371 178.629 81.6152 178.268L83.5562 178.261C83.522 178.817 83.3462 179.318 83.0288 179.762C82.7163 180.207 82.2964 180.553 81.769 180.802C81.2466 181.051 80.6948 181.168 80.1138 181.154C79.1519 181.139 78.3901 180.807 77.8286 180.158C77.2671 179.508 76.9961 178.644 77.0156 177.565L77.0376 177.162L77.0449 177.082C77.1768 175.792 77.6113 174.772 78.3486 174.02C79.0859 173.263 79.9966 172.899 81.0806 172.929C81.9741 172.948 82.6821 173.241 83.2046 173.808C83.7319 174.369 83.9907 175.111 83.981 176.034H82.0547C82.0547 175.609 81.9619 175.275 81.7764 175.031C81.5908 174.787 81.3125 174.655 80.9414 174.635C79.9551 174.606 79.3569 175.326 79.147 176.796C79.0737 177.328 79.0469 177.777 79.0664 178.144C79.1152 178.998 79.4814 179.433 80.165 179.447ZM88.9468 178.766C89.0249 178.375 88.7539 178.092 88.1338 177.917L87.4673 177.748C85.8901 177.313 85.1235 176.547 85.1675 175.448C85.1919 174.701 85.5215 174.093 86.1562 173.625C86.7959 173.151 87.5649 172.919 88.4634 172.929C89.3569 172.938 90.0796 173.175 90.6313 173.639C91.1831 174.103 91.4639 174.721 91.4736 175.492L89.4229 175.485C89.4326 174.806 89.0957 174.462 88.4121 174.452C88.0898 174.452 87.8091 174.533 87.5698 174.694C87.3354 174.855 87.1914 175.072 87.1377 175.346C87.0645 175.736 87.3599 176.012 88.0239 176.173L88.3169 176.239C88.9907 176.4 89.5059 176.586 89.8623 176.796C90.2188 177.001 90.4922 177.257 90.6826 177.565C90.8779 177.873 90.9683 178.241 90.9536 178.671C90.939 179.174 90.7754 179.613 90.4629 179.989C90.1553 180.365 89.7305 180.656 89.1885 180.861C88.6514 181.066 88.085 181.161 87.4893 181.146C86.6104 181.137 85.8779 180.885 85.292 180.392C84.7061 179.894 84.4082 179.252 84.3984 178.466L86.3467 178.48C86.3662 179.237 86.7715 179.621 87.5625 179.63C87.9434 179.63 88.2559 179.552 88.5 179.396C88.749 179.24 88.8979 179.03 88.9468 178.766Z" fill="#F2994A"/>
        <path d="M225.937 163.44C225.854 164.178 225.602 164.832 225.182 165.403C224.762 165.97 224.215 166.407 223.542 166.714C222.868 167.017 222.14 167.161 221.359 167.146C220.656 167.132 220.043 166.971 219.521 166.663C218.998 166.351 218.585 165.901 218.283 165.315C217.985 164.725 217.816 164.046 217.777 163.279C217.743 162.679 217.804 161.932 217.96 161.038C218.122 160.145 218.405 159.351 218.81 158.658C219.22 157.964 219.706 157.415 220.268 157.01C221.059 156.443 221.962 156.17 222.978 156.189C224.081 156.209 224.955 156.551 225.6 157.215C226.249 157.874 226.605 158.792 226.669 159.969L224.53 159.961C224.53 159.288 224.396 158.794 224.127 158.482C223.859 158.169 223.441 158.003 222.875 157.984C222.143 157.959 221.54 158.221 221.066 158.768C220.597 159.314 220.282 160.113 220.121 161.163C219.965 162.183 219.896 162.947 219.916 163.455C219.94 164.1 220.084 164.576 220.348 164.883C220.612 165.186 220.98 165.345 221.454 165.359C222.108 165.384 222.631 165.23 223.021 164.898C223.417 164.561 223.678 164.08 223.805 163.455L225.937 163.44ZM229.855 159.954C230.475 159.261 231.19 158.919 232.001 158.929C232.787 158.948 233.363 159.231 233.729 159.778C234.101 160.32 234.24 161.062 234.147 162.005L233.312 167H231.247L232.089 161.983C232.113 161.792 232.118 161.617 232.104 161.456C232.055 160.928 231.747 160.657 231.181 160.643C230.624 160.623 230.136 160.862 229.716 161.36L228.72 167H226.654L228.603 155.75H230.675L229.855 159.954ZM238.688 167.146C237.995 167.142 237.379 166.973 236.842 166.641C236.31 166.304 235.912 165.845 235.648 165.264C235.385 164.678 235.282 164.034 235.341 163.331L235.363 163.038C235.436 162.266 235.661 161.558 236.037 160.914C236.413 160.269 236.896 159.773 237.487 159.427C238.078 159.075 238.732 158.909 239.45 158.929C240.47 158.948 241.242 159.324 241.764 160.057C242.292 160.784 242.492 161.707 242.365 162.825L242.248 163.726H237.392C237.372 164.239 237.497 164.649 237.765 164.957C238.034 165.264 238.4 165.423 238.864 165.433C239.616 165.452 240.275 165.162 240.841 164.561L241.786 165.733C241.488 166.182 241.059 166.534 240.497 166.788C239.936 167.037 239.333 167.156 238.688 167.146ZM239.347 160.635C238.966 160.625 238.627 160.745 238.329 160.994C238.036 161.243 237.772 161.675 237.538 162.291H240.38L240.424 162.1C240.453 161.905 240.456 161.719 240.431 161.543C240.382 161.26 240.263 161.041 240.072 160.884C239.882 160.723 239.64 160.64 239.347 160.635ZM246.159 159.068L245.99 159.969C246.63 159.256 247.404 158.909 248.312 158.929C248.8 158.938 249.206 159.051 249.528 159.266C249.85 159.48 250.067 159.771 250.18 160.137C250.878 159.312 251.698 158.909 252.641 158.929C253.368 158.943 253.915 159.192 254.281 159.676C254.652 160.159 254.809 160.857 254.75 161.771L254.735 161.954L253.893 167H251.82L252.663 161.939C252.682 161.758 252.689 161.59 252.685 161.434C252.65 160.921 252.357 160.657 251.806 160.643C251.239 160.643 250.753 160.945 250.348 161.551L250.326 161.719L249.403 167H247.338L248.18 161.954C248.2 161.773 248.207 161.604 248.202 161.448C248.168 160.931 247.877 160.665 247.331 160.65C246.808 160.635 246.337 160.882 245.917 161.39L244.928 167H242.863L244.232 159.075L246.159 159.068ZM257.716 167H255.636L257.013 159.075H259.093L257.716 167ZM257.255 157.061C257.245 156.734 257.353 156.463 257.577 156.248C257.802 156.033 258.073 155.926 258.39 155.926C258.703 155.916 258.974 156.011 259.203 156.211C259.433 156.412 259.552 156.67 259.562 156.988C259.572 157.291 259.469 157.554 259.254 157.779C259.044 158.003 258.769 158.121 258.427 158.13C258.119 158.14 257.848 158.047 257.614 157.852C257.384 157.657 257.265 157.393 257.255 157.061ZM264.066 164.766C264.145 164.375 263.874 164.092 263.253 163.917L262.587 163.748C261.01 163.313 260.243 162.547 260.287 161.448C260.312 160.701 260.641 160.093 261.276 159.625C261.916 159.151 262.685 158.919 263.583 158.929C264.477 158.938 265.199 159.175 265.751 159.639C266.303 160.103 266.583 160.721 266.593 161.492L264.542 161.485C264.552 160.806 264.215 160.462 263.532 160.452C263.209 160.452 262.929 160.533 262.689 160.694C262.455 160.855 262.311 161.072 262.257 161.346C262.184 161.736 262.479 162.012 263.144 162.173L263.437 162.239C264.11 162.4 264.625 162.586 264.982 162.796C265.338 163.001 265.612 163.257 265.802 163.565C265.998 163.873 266.088 164.241 266.073 164.671C266.059 165.174 265.895 165.613 265.583 165.989C265.275 166.365 264.85 166.656 264.308 166.861C263.771 167.066 263.205 167.161 262.609 167.146C261.73 167.137 260.998 166.885 260.412 166.392C259.826 165.894 259.528 165.252 259.518 164.466L261.466 164.48C261.486 165.237 261.891 165.621 262.682 165.63C263.063 165.63 263.375 165.552 263.62 165.396C263.869 165.24 264.018 165.03 264.066 164.766ZM271.222 157.127L270.878 159.075H272.196L271.925 160.628H270.607L269.933 164.598C269.904 164.847 269.923 165.037 269.992 165.169C270.06 165.301 270.226 165.372 270.49 165.381C270.568 165.386 270.778 165.374 271.12 165.345L270.973 166.963C270.607 167.085 270.211 167.142 269.787 167.132C269.108 167.122 268.603 166.91 268.271 166.495C267.938 166.08 267.802 165.518 267.86 164.81L268.542 160.628H267.421L267.692 159.075H268.812L269.149 157.127H271.222ZM277.455 161.06C277.172 161.011 276.94 160.987 276.759 160.987C276.022 160.967 275.438 161.243 275.009 161.814L274.093 167H272.028L273.405 159.075L275.346 159.068L275.155 160.035C275.653 159.288 276.269 158.914 277.001 158.914C277.206 158.914 277.445 158.948 277.719 159.017L277.455 161.06ZM280.912 163.982L283.175 159.075H285.475L280.839 168.194C280.507 168.892 280.116 169.405 279.667 169.732C279.223 170.059 278.708 170.223 278.122 170.223C277.892 170.223 277.56 170.171 277.125 170.069L277.279 168.458L277.565 168.472C278.239 168.492 278.732 168.245 279.044 167.732L279.499 166.89L278.202 159.075H280.341L280.912 163.982Z" fill="#F2994A"/>
        <path d="M218.467 408.378H214.38L213.882 411.235H218.687L218.379 413H211.428L213.281 402.336H220.217L219.902 404.116H215.12L214.673 406.657H218.774L218.467 408.378ZM222.883 411.447C223.264 411.457 223.582 411.354 223.835 411.14C224.089 410.92 224.255 410.629 224.333 410.268L226.274 410.261C226.24 410.817 226.064 411.318 225.747 411.762C225.435 412.207 225.015 412.553 224.487 412.802C223.965 413.051 223.413 413.168 222.832 413.154C221.87 413.139 221.108 412.807 220.547 412.158C219.985 411.508 219.714 410.644 219.734 409.565L219.756 409.162L219.763 409.082C219.895 407.792 220.33 406.772 221.067 406.02C221.804 405.263 222.715 404.899 223.799 404.929C224.692 404.948 225.4 405.241 225.923 405.808C226.45 406.369 226.709 407.111 226.699 408.034H224.773C224.773 407.609 224.68 407.275 224.495 407.031C224.309 406.787 224.031 406.655 223.66 406.635C222.673 406.606 222.075 407.326 221.865 408.796C221.792 409.328 221.765 409.777 221.785 410.144C221.833 410.998 222.2 411.433 222.883 411.447ZM231.606 404.929C232.305 404.938 232.905 405.119 233.408 405.471C233.916 405.817 234.287 406.298 234.521 406.914C234.761 407.524 234.846 408.203 234.778 408.95C234.666 410.209 234.226 411.23 233.459 412.011C232.698 412.788 231.755 413.166 230.632 413.146C229.944 413.137 229.348 412.961 228.845 412.619C228.342 412.272 227.971 411.794 227.732 411.184C227.493 410.573 227.407 409.899 227.476 409.162C227.603 407.854 228.047 406.813 228.809 406.042C229.57 405.271 230.503 404.899 231.606 404.929ZM229.519 409.917C229.529 410.385 229.639 410.756 229.849 411.03C230.059 411.298 230.354 411.438 230.735 411.447C231.37 411.467 231.868 411.176 232.229 410.576C232.59 409.97 232.759 409.177 232.734 408.195C232.715 407.727 232.6 407.353 232.39 407.075C232.185 406.792 231.89 406.645 231.504 406.635C230.889 406.616 230.396 406.906 230.024 407.507C229.658 408.103 229.49 408.906 229.519 409.917ZM238.645 405.068L238.469 406.005C239.104 405.268 239.873 404.909 240.776 404.929C241.523 404.943 242.075 405.217 242.432 405.749C242.788 406.281 242.917 407.019 242.82 407.961L241.985 413H239.919L240.769 407.939C240.793 407.749 240.798 407.575 240.784 407.419C240.72 406.921 240.408 406.665 239.846 406.65C239.304 406.63 238.818 406.882 238.389 407.404L237.4 413H235.334L236.711 405.075L238.645 405.068ZM248.145 404.929C248.843 404.938 249.443 405.119 249.946 405.471C250.454 405.817 250.825 406.298 251.06 406.914C251.299 407.524 251.384 408.203 251.316 408.95C251.204 410.209 250.764 411.23 249.998 412.011C249.236 412.788 248.293 413.166 247.17 413.146C246.482 413.137 245.886 412.961 245.383 412.619C244.88 412.272 244.509 411.794 244.27 411.184C244.031 410.573 243.945 409.899 244.014 409.162C244.141 407.854 244.585 406.813 245.347 406.042C246.108 405.271 247.041 404.899 248.145 404.929ZM246.057 409.917C246.067 410.385 246.177 410.756 246.387 411.03C246.597 411.298 246.892 411.438 247.273 411.447C247.908 411.467 248.406 411.176 248.767 410.576C249.128 409.97 249.297 409.177 249.272 408.195C249.253 407.727 249.138 407.353 248.928 407.075C248.723 406.792 248.428 406.645 248.042 406.635C247.427 406.616 246.934 406.906 246.562 407.507C246.196 408.103 246.028 408.906 246.057 409.917ZM255.212 405.068L255.044 405.969C255.684 405.256 256.458 404.909 257.366 404.929C257.854 404.938 258.259 405.051 258.582 405.266C258.904 405.48 259.121 405.771 259.233 406.137C259.932 405.312 260.752 404.909 261.694 404.929C262.422 404.943 262.969 405.192 263.335 405.676C263.706 406.159 263.862 406.857 263.804 407.771L263.789 407.954L262.947 413H260.874L261.716 407.939C261.736 407.758 261.743 407.59 261.738 407.434C261.704 406.921 261.411 406.657 260.859 406.643C260.293 406.643 259.807 406.945 259.402 407.551L259.38 407.719L258.457 413H256.392L257.234 407.954C257.253 407.773 257.261 407.604 257.256 407.448C257.222 406.931 256.931 406.665 256.384 406.65C255.862 406.635 255.391 406.882 254.971 407.39L253.982 413H251.917L253.286 405.075L255.212 405.068ZM266.77 413H264.69L266.067 405.075H268.147L266.77 413ZM266.309 403.061C266.299 402.734 266.406 402.463 266.631 402.248C266.855 402.033 267.126 401.926 267.444 401.926C267.756 401.916 268.027 402.011 268.257 402.211C268.486 402.412 268.606 402.67 268.616 402.988C268.625 403.291 268.523 403.554 268.308 403.779C268.098 404.003 267.822 404.121 267.48 404.13C267.173 404.14 266.902 404.047 266.667 403.852C266.438 403.657 266.318 403.393 266.309 403.061ZM272 411.447C272.38 411.457 272.698 411.354 272.952 411.14C273.206 410.92 273.372 410.629 273.45 410.268L275.391 410.261C275.356 410.817 275.181 411.318 274.863 411.762C274.551 412.207 274.131 412.553 273.604 412.802C273.081 413.051 272.529 413.168 271.948 413.154C270.986 413.139 270.225 412.807 269.663 412.158C269.102 411.508 268.831 410.644 268.85 409.565L268.872 409.162L268.879 409.082C269.011 407.792 269.446 406.772 270.183 406.02C270.92 405.263 271.831 404.899 272.915 404.929C273.809 404.948 274.517 405.241 275.039 405.808C275.566 406.369 275.825 407.111 275.815 408.034H273.889C273.889 407.609 273.796 407.275 273.611 407.031C273.425 406.787 273.147 406.655 272.776 406.635C271.79 406.606 271.191 407.326 270.981 408.796C270.908 409.328 270.881 409.777 270.901 410.144C270.95 410.998 271.316 411.433 272 411.447ZM280.781 410.766C280.859 410.375 280.588 410.092 279.968 409.917L279.302 409.748C277.725 409.313 276.958 408.547 277.002 407.448C277.026 406.701 277.356 406.093 277.991 405.625C278.63 405.151 279.399 404.919 280.298 404.929C281.191 404.938 281.914 405.175 282.466 405.639C283.018 406.103 283.298 406.721 283.308 407.492L281.257 407.485C281.267 406.806 280.93 406.462 280.247 406.452C279.924 406.452 279.644 406.533 279.404 406.694C279.17 406.855 279.026 407.072 278.972 407.346C278.899 407.736 279.194 408.012 279.858 408.173L280.151 408.239C280.825 408.4 281.34 408.586 281.697 408.796C282.053 409.001 282.327 409.257 282.517 409.565C282.712 409.873 282.803 410.241 282.788 410.671C282.773 411.174 282.61 411.613 282.297 411.989C281.99 412.365 281.565 412.656 281.023 412.861C280.486 413.066 279.919 413.161 279.324 413.146C278.445 413.137 277.712 412.885 277.126 412.392C276.541 411.894 276.243 411.252 276.233 410.466L278.181 410.48C278.201 411.237 278.606 411.621 279.397 411.63C279.778 411.63 280.09 411.552 280.334 411.396C280.583 411.24 280.732 411.03 280.781 410.766Z" fill="#F2994A"/>
        <path d="M114.427 509.378H110.34L109.842 512.235H114.647L114.339 514H107.389L109.242 503.336H116.178L115.863 505.116H111.08L110.633 507.657H114.735L114.427 509.378ZM118.785 506.068L118.609 507.005C119.244 506.268 120.013 505.909 120.917 505.929C121.664 505.943 122.215 506.217 122.572 506.749C122.928 507.281 123.058 508.019 122.96 508.961L122.125 514H120.06L120.909 508.939C120.934 508.749 120.938 508.575 120.924 508.419C120.86 507.921 120.548 507.665 119.986 507.65C119.444 507.63 118.958 507.882 118.529 508.404L117.54 514H115.475L116.852 506.075L118.785 506.068ZM124.146 510.03C124.293 508.805 124.691 507.811 125.34 507.049C125.995 506.283 126.817 505.907 127.809 505.921C128.653 505.941 129.283 506.246 129.698 506.837L129.969 506.068L131.866 506.075L130.57 513.729C130.428 514.784 129.979 515.619 129.222 516.234C128.465 516.849 127.528 517.147 126.41 517.127C125.863 517.118 125.34 516.998 124.842 516.769C124.344 516.544 123.934 516.234 123.612 515.838L124.637 514.579C125.096 515.16 125.672 515.46 126.366 515.479C126.903 515.499 127.362 515.357 127.743 515.055C128.124 514.757 128.382 514.334 128.519 513.788L128.636 513.312C128.06 513.888 127.413 514.166 126.695 514.146C125.924 514.137 125.311 513.851 124.857 513.29C124.403 512.723 124.154 511.988 124.11 511.085C124.095 510.787 124.107 510.436 124.146 510.03ZM126.175 510.895C126.175 511.354 126.271 511.722 126.461 512C126.656 512.274 126.937 512.418 127.303 512.433C127.865 512.452 128.363 512.213 128.797 511.715L129.413 508.36C129.203 507.901 128.814 507.662 128.248 507.643C127.721 507.628 127.274 507.84 126.908 508.28C126.542 508.719 126.312 509.303 126.219 510.03C126.185 510.387 126.17 510.675 126.175 510.895ZM134.312 514H132.232L134.188 502.75H136.261L134.312 514ZM138.253 514H136.173L137.55 506.075H139.63L138.253 514ZM137.792 504.061C137.782 503.734 137.889 503.463 138.114 503.248C138.338 503.033 138.609 502.926 138.927 502.926C139.239 502.916 139.51 503.011 139.74 503.211C139.969 503.412 140.089 503.67 140.099 503.988C140.108 504.291 140.006 504.554 139.791 504.779C139.581 505.003 139.305 505.121 138.963 505.13C138.656 505.14 138.385 505.047 138.15 504.852C137.921 504.657 137.801 504.393 137.792 504.061ZM144.603 511.766C144.681 511.375 144.41 511.092 143.79 510.917L143.124 510.748C141.546 510.313 140.78 509.547 140.824 508.448C140.848 507.701 141.178 507.093 141.812 506.625C142.452 506.151 143.221 505.919 144.12 505.929C145.013 505.938 145.736 506.175 146.288 506.639C146.839 507.103 147.12 507.721 147.13 508.492L145.079 508.485C145.089 507.806 144.752 507.462 144.068 507.452C143.746 507.452 143.465 507.533 143.226 507.694C142.992 507.855 142.848 508.072 142.794 508.346C142.721 508.736 143.016 509.012 143.68 509.173L143.973 509.239C144.647 509.4 145.162 509.586 145.519 509.796C145.875 510.001 146.148 510.257 146.339 510.565C146.534 510.873 146.625 511.241 146.61 511.671C146.595 512.174 146.432 512.613 146.119 512.989C145.812 513.365 145.387 513.656 144.845 513.861C144.308 514.066 143.741 514.161 143.146 514.146C142.267 514.137 141.534 513.885 140.948 513.392C140.362 512.894 140.064 512.252 140.055 511.466L142.003 511.48C142.022 512.237 142.428 512.621 143.219 512.63C143.6 512.63 143.912 512.552 144.156 512.396C144.405 512.24 144.554 512.03 144.603 511.766ZM150.719 506.954C151.339 506.261 152.054 505.919 152.865 505.929C153.651 505.948 154.227 506.231 154.593 506.778C154.964 507.32 155.104 508.062 155.011 509.005L154.176 514H152.11L152.953 508.983C152.977 508.792 152.982 508.617 152.967 508.456C152.918 507.928 152.611 507.657 152.044 507.643C151.488 507.623 151 507.862 150.58 508.36L149.583 514H147.518L149.466 502.75H151.539L150.719 506.954Z" fill="#F2994A"/>
        <path d="M131.026 260.336L132.337 268.048L136.314 260.336H139.17L137.317 271H135.164L135.691 267.96L136.731 263.214L132.645 271H131.172L129.744 262.943L129.056 268.195L128.565 271H126.419L128.272 260.336H131.026ZM143.689 271C143.626 270.8 143.599 270.561 143.609 270.282C143.013 270.878 142.339 271.166 141.587 271.146C140.894 271.137 140.318 270.912 139.859 270.473C139.405 270.028 139.192 269.481 139.222 268.832C139.256 267.968 139.617 267.306 140.306 266.847C140.999 266.383 141.927 266.151 143.089 266.151L144.056 266.166L144.158 265.69C144.188 265.529 144.195 265.375 144.18 265.229C144.156 264.999 144.068 264.821 143.917 264.694C143.77 264.562 143.575 264.494 143.331 264.489C143.008 264.479 142.735 264.56 142.51 264.73C142.286 264.896 142.142 265.138 142.078 265.456L140.005 265.463C140.04 264.706 140.386 264.093 141.045 263.625C141.709 263.151 142.527 262.919 143.499 262.929C144.397 262.948 145.101 263.217 145.608 263.734C146.116 264.247 146.329 264.909 146.246 265.719L145.638 269.513L145.601 269.982C145.591 270.329 145.633 270.622 145.726 270.861L145.718 271H143.689ZM142.1 269.542C142.696 269.562 143.216 269.303 143.66 268.766L143.917 267.396L143.199 267.389C142.437 267.409 141.888 267.641 141.551 268.085C141.429 268.246 141.353 268.444 141.324 268.678C141.285 268.942 141.338 269.152 141.485 269.308C141.636 269.459 141.841 269.538 142.1 269.542ZM151.175 261.127L150.831 263.075H152.149L151.878 264.628H150.56L149.886 268.598C149.856 268.847 149.876 269.037 149.944 269.169C150.013 269.301 150.179 269.372 150.442 269.381C150.521 269.386 150.73 269.374 151.072 269.345L150.926 270.963C150.56 271.085 150.164 271.142 149.739 271.132C149.061 271.122 148.555 270.91 148.223 270.495C147.891 270.08 147.754 269.518 147.813 268.81L148.494 264.628H147.374L147.645 263.075H148.765L149.102 261.127H151.175ZM155.13 263.954C155.75 263.261 156.465 262.919 157.276 262.929C158.062 262.948 158.638 263.231 159.004 263.778C159.375 264.32 159.515 265.062 159.422 266.005L158.587 271H156.521L157.364 265.983C157.388 265.792 157.393 265.617 157.378 265.456C157.33 264.928 157.022 264.657 156.456 264.643C155.899 264.623 155.411 264.862 154.991 265.36L153.995 271H151.929L153.877 259.75H155.95L155.13 263.954ZM164.791 268.766C164.869 268.375 164.598 268.092 163.978 267.917L163.311 267.748C161.734 267.313 160.967 266.547 161.011 265.448C161.036 264.701 161.365 264.093 162 263.625C162.64 263.151 163.409 262.919 164.307 262.929C165.201 262.938 165.923 263.175 166.475 263.639C167.027 264.103 167.308 264.721 167.317 265.492L165.267 265.485C165.276 264.806 164.939 264.462 164.256 264.452C163.934 264.452 163.653 264.533 163.414 264.694C163.179 264.855 163.035 265.072 162.981 265.346C162.908 265.736 163.204 266.012 163.868 266.173L164.161 266.239C164.834 266.4 165.35 266.586 165.706 266.796C166.062 267.001 166.336 267.257 166.526 267.565C166.722 267.873 166.812 268.241 166.797 268.671C166.783 269.174 166.619 269.613 166.307 269.989C165.999 270.365 165.574 270.656 165.032 270.861C164.495 271.066 163.929 271.161 163.333 271.146C162.454 271.137 161.722 270.885 161.136 270.392C160.55 269.894 160.252 269.252 160.242 268.466L162.19 268.48C162.21 269.237 162.615 269.621 163.406 269.63C163.787 269.63 164.1 269.552 164.344 269.396C164.593 269.24 164.742 269.03 164.791 268.766Z" fill="#F2994A"/>
        <path d="M46.8716 415.803H43.1509L42.0522 418H39.6865L45.3848 407.336H47.3696L49.3984 418H47.2085L46.8716 415.803ZM44.0298 414.023H46.6006L46 410.053L44.0298 414.023ZM53.8149 416.447C54.1958 416.457 54.5132 416.354 54.7671 416.14C55.021 415.92 55.187 415.629 55.2651 415.268L57.2061 415.261C57.1719 415.817 56.9961 416.318 56.6787 416.762C56.3662 417.207 55.9463 417.553 55.4189 417.802C54.8965 418.051 54.3447 418.168 53.7637 418.154C52.8018 418.139 52.04 417.807 51.4785 417.158C50.917 416.508 50.646 415.644 50.6655 414.565L50.6875 414.162L50.6948 414.082C50.8267 412.792 51.2612 411.772 51.9985 411.02C52.7358 410.263 53.6465 409.899 54.7305 409.929C55.624 409.948 56.332 410.241 56.8545 410.808C57.3818 411.369 57.6406 412.111 57.6309 413.034H55.7046C55.7046 412.609 55.6118 412.275 55.4263 412.031C55.2407 411.787 54.9624 411.655 54.5913 411.635C53.605 411.606 53.0068 412.326 52.7969 413.796C52.7236 414.328 52.6968 414.777 52.7163 415.144C52.7651 415.998 53.1313 416.433 53.8149 416.447ZM61.4761 416.447C61.8569 416.457 62.1743 416.354 62.4282 416.14C62.6821 415.92 62.8481 415.629 62.9263 415.268L64.8672 415.261C64.833 415.817 64.6572 416.318 64.3398 416.762C64.0273 417.207 63.6074 417.553 63.0801 417.802C62.5576 418.051 62.0059 418.168 61.4248 418.154C60.4629 418.139 59.7012 417.807 59.1396 417.158C58.5781 416.508 58.3071 415.644 58.3267 414.565L58.3486 414.162L58.356 414.082C58.4878 412.792 58.9224 411.772 59.6597 411.02C60.397 410.263 61.3076 409.899 62.3916 409.929C63.2852 409.948 63.9932 410.241 64.5156 410.808C65.043 411.369 65.3018 412.111 65.292 413.034H63.3657C63.3657 412.609 63.2729 412.275 63.0874 412.031C62.9019 411.787 62.6235 411.655 62.2524 411.635C61.2661 411.606 60.668 412.326 60.458 413.796C60.3848 414.328 60.3579 414.777 60.3774 415.144C60.4263 415.998 60.7925 416.433 61.4761 416.447ZM70.1992 409.929C70.8975 409.938 71.498 410.119 72.001 410.471C72.5088 410.817 72.8799 411.298 73.1143 411.914C73.3535 412.524 73.439 413.203 73.3706 413.95C73.2583 415.209 72.8188 416.23 72.0522 417.011C71.2905 417.788 70.3481 418.166 69.2251 418.146C68.5366 418.137 67.9409 417.961 67.438 417.619C66.9351 417.272 66.564 416.794 66.3247 416.184C66.0854 415.573 66 414.899 66.0684 414.162C66.1953 412.854 66.6396 411.813 67.4014 411.042C68.1631 410.271 69.0957 409.899 70.1992 409.929ZM68.1118 414.917C68.1216 415.385 68.2314 415.756 68.4414 416.03C68.6514 416.298 68.9468 416.438 69.3276 416.447C69.9624 416.467 70.4604 416.176 70.8218 415.576C71.1831 414.97 71.3516 414.177 71.3271 413.195C71.3076 412.727 71.1929 412.353 70.9829 412.075C70.7778 411.792 70.4824 411.645 70.0967 411.635C69.4814 411.616 68.9883 411.906 68.6172 412.507C68.251 413.103 68.0825 413.906 68.1118 414.917ZM78.8784 417.18C78.2925 417.839 77.5649 418.161 76.6958 418.146C75.9341 418.137 75.3579 417.863 74.9673 417.326C74.5767 416.789 74.4253 416.081 74.5132 415.202L75.3701 410.075H77.4355L76.564 415.224C76.5444 415.385 76.542 415.537 76.5566 415.678C76.6055 416.167 76.8765 416.418 77.3696 416.433C78.0093 416.452 78.5391 416.206 78.959 415.693L79.9478 410.075H82.0278L80.6509 418H78.7246L78.8784 417.18ZM85.4556 410.068L85.2798 411.005C85.9146 410.268 86.6836 409.909 87.5869 409.929C88.334 409.943 88.8857 410.217 89.2422 410.749C89.5986 411.281 89.728 412.019 89.6304 412.961L88.7954 418H86.73L87.5796 412.939C87.604 412.749 87.6089 412.575 87.5942 412.419C87.5308 411.921 87.2183 411.665 86.6567 411.65C86.1147 411.63 85.6289 411.882 85.1992 412.404L84.2104 418H82.145L83.522 410.075L85.4556 410.068ZM94.6108 408.127L94.2666 410.075H95.585L95.314 411.628H93.9956L93.3218 415.598C93.2925 415.847 93.312 416.037 93.3804 416.169C93.4487 416.301 93.6147 416.372 93.8784 416.381C93.9565 416.386 94.1665 416.374 94.5083 416.345L94.3618 417.963C93.9956 418.085 93.6001 418.142 93.1753 418.132C92.4966 418.122 91.9912 417.91 91.6592 417.495C91.3271 417.08 91.1904 416.518 91.249 415.81L91.9302 411.628H90.8096L91.0806 410.075H92.2012L92.5381 408.127H94.6108ZM100.001 418C99.938 417.8 99.9111 417.561 99.9209 417.282C99.3252 417.878 98.6514 418.166 97.8994 418.146C97.2061 418.137 96.6299 417.912 96.1709 417.473C95.7168 417.028 95.5044 416.481 95.5337 415.832C95.5679 414.968 95.9292 414.306 96.6177 413.847C97.311 413.383 98.2388 413.151 99.4009 413.151L100.368 413.166L100.47 412.69C100.5 412.529 100.507 412.375 100.492 412.229C100.468 411.999 100.38 411.821 100.229 411.694C100.082 411.562 99.8867 411.494 99.6426 411.489C99.3203 411.479 99.0469 411.56 98.8223 411.73C98.5977 411.896 98.4536 412.138 98.3901 412.456L96.3174 412.463C96.3516 411.706 96.6982 411.093 97.3574 410.625C98.0215 410.151 98.8394 409.919 99.811 409.929C100.709 409.948 101.413 410.217 101.92 410.734C102.428 411.247 102.641 411.909 102.558 412.719L101.95 416.513L101.913 416.982C101.903 417.329 101.945 417.622 102.038 417.861L102.03 418H100.001ZM98.4121 416.542C99.0078 416.562 99.5278 416.303 99.9722 415.766L100.229 414.396L99.5107 414.389C98.749 414.409 98.1997 414.641 97.8628 415.085C97.7407 415.246 97.665 415.444 97.6357 415.678C97.5967 415.942 97.6504 416.152 97.7969 416.308C97.9482 416.459 98.1533 416.538 98.4121 416.542ZM106.564 410.068L106.388 411.005C107.023 410.268 107.792 409.909 108.695 409.929C109.442 409.943 109.994 410.217 110.351 410.749C110.707 411.281 110.836 412.019 110.739 412.961L109.904 418H107.838L108.688 412.939C108.712 412.749 108.717 412.575 108.703 412.419C108.639 411.921 108.327 411.665 107.765 411.65C107.223 411.63 106.737 411.882 106.308 412.404L105.319 418H103.253L104.63 410.075L106.564 410.068ZM115.001 416.447C115.382 416.457 115.7 416.354 115.954 416.14C116.208 415.92 116.374 415.629 116.452 415.268L118.393 415.261C118.358 415.817 118.183 416.318 117.865 416.762C117.553 417.207 117.133 417.553 116.605 417.802C116.083 418.051 115.531 418.168 114.95 418.154C113.988 418.139 113.227 417.807 112.665 417.158C112.104 416.508 111.833 415.644 111.852 414.565L111.874 414.162L111.881 414.082C112.013 412.792 112.448 411.772 113.185 411.02C113.922 410.263 114.833 409.899 115.917 409.929C116.811 409.948 117.519 410.241 118.041 410.808C118.568 411.369 118.827 412.111 118.817 413.034H116.891C116.891 412.609 116.798 412.275 116.613 412.031C116.427 411.787 116.149 411.655 115.778 411.635C114.792 411.606 114.193 412.326 113.983 413.796C113.91 414.328 113.883 414.777 113.903 415.144C113.952 415.998 114.318 416.433 115.001 416.447ZM122.553 414.982L124.816 410.075H127.116L122.479 419.194C122.147 419.892 121.757 420.405 121.308 420.732C120.863 421.059 120.348 421.223 119.762 421.223C119.533 421.223 119.201 421.171 118.766 421.069L118.92 419.458L119.206 419.472C119.879 419.492 120.373 419.245 120.685 418.732L121.139 417.89L119.843 410.075H121.981L122.553 414.982Z" fill="#F2994A"/>
        <path d="M217.246 391.969C217.782 391.833 218.105 391.289 217.969 390.754L215.752 382.031C215.615 381.496 215.071 381.172 214.536 381.308C214.001 381.444 213.677 381.989 213.813 382.524L215.784 390.277L208.031 392.248C207.496 392.385 207.172 392.929 207.308 393.464C207.444 393.999 207.989 394.323 208.524 394.187L217.246 391.969ZM179.489 369.86L216.489 391.86L217.511 390.14L180.511 368.14L179.489 369.86Z" fill="#F2994A"/>
        <path d="M229.99 439.859C229.912 439.312 229.405 438.932 228.859 439.01L219.949 440.283C219.402 440.361 219.022 440.867 219.101 441.414C219.179 441.961 219.685 442.341 220.232 442.263L228.151 441.131L229.283 449.051C229.361 449.598 229.867 449.978 230.414 449.899C230.961 449.821 231.341 449.315 231.263 448.768L229.99 439.859ZM187.8 496.6L229.8 440.6L228.2 439.4L186.2 495.4L187.8 496.6Z" fill="#F2994A"/>
        <path d="M96.6838 489.949C97.2077 490.123 97.774 489.84 97.9487 489.316L100.795 480.778C100.969 480.254 100.686 479.688 100.162 479.513C99.6383 479.339 99.072 479.622 98.8974 480.146L96.3675 487.735L88.7781 485.205C88.2541 485.031 87.6878 485.314 87.5132 485.838C87.3385 486.362 87.6217 486.928 88.1456 487.103L96.6838 489.949ZM66.1056 429.447L96.1056 489.447L97.8944 488.553L67.8944 428.553L66.1056 429.447Z" fill="#F2994A"/>
        <path d="M81.0005 390.968C80.9827 391.52 81.4158 391.982 81.9678 391.999L90.9631 392.29C91.5151 392.307 91.977 391.874 91.9948 391.322C92.0126 390.77 91.5796 390.308 91.0276 390.291L83.0317 390.033L83.2897 382.037C83.3075 381.485 82.8744 381.023 82.3224 381.005C81.7704 380.987 81.3085 381.42 81.2907 381.972L81.0005 390.968ZM97.3161 375.27L81.3161 390.27L82.6839 391.73L98.6839 376.73L97.3161 375.27Z" fill="#F2994A"/>
        <path d="M238.993 182.88C238.926 182.331 238.428 181.941 237.88 182.007L228.945 183.09C228.397 183.157 228.006 183.655 228.073 184.203C228.139 184.752 228.637 185.142 229.186 185.076L237.128 184.113L238.09 192.055C238.157 192.603 238.655 192.994 239.203 192.927C239.752 192.861 240.142 192.363 240.076 191.814L238.993 182.88ZM180.787 257.617L238.787 183.617L237.213 182.383L179.213 256.383L180.787 257.617Z" fill="#F2994A"/>
        <path d="M73.1748 192.015C72.6311 191.919 72.112 192.281 72.0154 192.825L70.4419 201.687C70.3453 202.23 70.7079 202.749 71.2516 202.846C71.7954 202.943 72.3145 202.58 72.4111 202.036L73.8098 194.159L81.6865 195.558C82.2303 195.655 82.7494 195.292 82.846 194.748C82.9425 194.205 82.58 193.685 82.0362 193.589L73.1748 192.015ZM117.82 255.427L73.8198 192.427L72.1802 193.573L116.18 256.573L117.82 255.427Z" fill="#F2994A"/>
        <path d="M201.791 162.612C202.129 162.175 202.049 161.547 201.612 161.209L194.493 155.702C194.056 155.364 193.428 155.444 193.09 155.881C192.753 156.318 192.833 156.946 193.27 157.284L199.597 162.179L194.702 168.507C194.364 168.944 194.444 169.572 194.881 169.91C195.318 170.247 195.946 170.167 196.284 169.73L201.791 162.612ZM107.127 174.992L201.127 162.992L200.873 161.008L106.873 173.008L107.127 174.992Z" fill="#F2994A"/>
        <path d="M117.999 284.051C118.027 283.499 117.602 283.029 117.051 283.001L108.062 282.544C107.511 282.516 107.041 282.941 107.013 283.492C106.985 284.044 107.409 284.514 107.961 284.542L115.951 284.948L115.544 292.938C115.516 293.489 115.941 293.959 116.492 293.987C117.044 294.015 117.514 293.591 117.542 293.039L117.999 284.051ZM86.6703 312.742L117.67 284.742L116.33 283.258L85.3297 311.258L86.6703 312.742Z" fill="#F2994A"/>
        <path d="M168.029 283C167.477 282.985 167.016 283.419 167 283.971L166.743 292.968C166.728 293.52 167.162 293.98 167.714 293.996C168.266 294.012 168.727 293.577 168.743 293.025L168.971 285.028L176.968 285.257C177.52 285.272 177.98 284.838 177.996 284.286C178.012 283.734 177.577 283.273 177.025 283.257L168.029 283ZM202.727 319.313L168.727 283.313L167.273 284.687L201.273 320.687L202.727 319.313Z" fill="#F2994A"/>
        <circle cx="252" cy="518" r="4" fill="#F2994A"/>
        <circle cx="36" cy="485" r="4" fill="#F2994A"/>
        <circle cx="329" cy="387" r="4" fill="#F2994A"/>
        <circle cx="63" cy="252" r="4" fill="#F2994A"/>
        <circle cx="278" cy="216" r="4" fill="#F2994A"/>
        <circle cx="67" cy="119" r="4" fill="#F2994A"/>
        <circle cx="289" cy="103" r="4" fill="#F2994A"/>
        <circle cx="29" cy="384" r="4" fill="#F2994A"/>
        <path d="M293.061 289.813L360.969 140.102L347.417 130.844L272.729 295.502L273.776 339.418L293.902 325.09L293.061 289.813Z" fill="#CAD8EA"/>
    </g>
    <defs>
        <clipPath id="clip0">
            <rect width="358" height="640" fill="white"/>
        </clipPath>
    </defs>
</svg>
